<?xml version="1.0" encoding="UTF-8"?>
<svg xmlns="http://www.w3.org/2000/svg" xmlns:xlink="http://www.w3.org/1999/xlink" width="24px" height="24px" viewBox="0 0 24 24" version="1.1">
<g id="surface1">
<path style=" stroke:none;fill-rule:nonzero;fill:rgb(18.823529%,30.980392%,99.607843%);fill-opacity:1;" d="M 20.835938 6.738281 C 20.636719 6.871094 20.351562 6.988281 20.230469 7.125 C 20.183594 7.171875 20.160156 7.21875 20.171875 7.269531 L 20.171875 7.785156 L 20.019531 8.289062 L 19.871094 8.789062 L 19.703125 9.339844 L 19.363281 10.464844 L 19.035156 11.574219 L 18.785156 12.410156 C 18.785156 12.539062 18.78125 12.671875 18.769531 12.796875 C 18.734375 13.273438 18.636719 13.734375 18.476562 14.164062 C 18.378906 14.429688 18.265625 14.683594 18.125 14.925781 C 18.074219 15.019531 18.015625 15.113281 17.953125 15.203125 C 17.753906 15.519531 17.515625 15.808594 17.25 16.066406 C 17.046875 16.269531 16.820312 16.460938 16.574219 16.621094 C 16.574219 16.621094 16.574219 16.621094 16.570312 16.621094 C 16.53125 16.65625 16.484375 16.683594 16.433594 16.710938 C 16.28125 16.816406 16.113281 16.90625 15.945312 16.984375 C 15.828125 17.046875 15.714844 17.09375 15.59375 17.140625 C 15.570312 17.15625 15.539062 17.164062 15.515625 17.175781 C 15.230469 17.308594 14.898438 17.398438 14.570312 17.445312 C 14.550781 17.449219 14.535156 17.449219 14.515625 17.453125 C 14.316406 17.488281 14.121094 17.519531 13.921875 17.535156 C 13.828125 17.546875 13.734375 17.550781 13.644531 17.550781 L 13.289062 17.53125 L 11.578125 17.441406 C 11.578125 17.433594 11.574219 17.441406 11.574219 17.441406 L 10.714844 17.394531 C 10.648438 17.394531 10.578125 17.394531 10.515625 17.390625 C 10.246094 17.378906 9.984375 17.351562 9.726562 17.296875 C 9.71875 17.296875 9.71875 17.296875 9.71875 17.296875 C 9.246094 17.203125 8.789062 17.046875 8.363281 16.828125 C 8.128906 16.710938 7.898438 16.574219 7.683594 16.421875 C 7.59375 16.355469 7.511719 16.285156 7.425781 16.210938 C 7.183594 16.011719 6.96875 15.796875 6.769531 15.574219 C 6.738281 15.546875 6.714844 15.515625 6.691406 15.484375 C 6.660156 15.453125 6.628906 15.421875 6.605469 15.390625 C 6.414062 15.148438 6.253906 14.90625 6.125 14.644531 C 6.003906 14.414062 5.910156 14.171875 5.835938 13.898438 C 5.804688 13.804688 5.78125 13.714844 5.761719 13.613281 C 5.753906 13.609375 5.75 13.601562 5.75 13.589844 C 5.699219 13.386719 5.65625 13.171875 5.628906 12.953125 C 5.601562 12.789062 5.585938 12.625 5.585938 12.453125 C 5.574219 12.390625 5.574219 12.320312 5.574219 12.253906 L 6.53125 10.78125 L 7.464844 9.339844 L 7.890625 8.683594 L 8.273438 8.09375 L 8.40625 7.890625 L 8.40625 7.375 C 8.414062 7.261719 8.421875 7.140625 8.414062 7.03125 C 8.410156 6.679688 8.339844 6.339844 8.226562 6.015625 C 8.113281 5.671875 7.960938 5.34375 7.800781 5.046875 C 7.609375 4.699219 7.410156 4.390625 7.246094 4.109375 C 7 3.699219 6.828125 3.363281 6.875 3.128906 C 7.234375 3.046875 7.613281 3 8 3 L 16 3 C 18.089844 3 19.890625 4.300781 20.636719 6.128906 C 20.714844 6.324219 20.785156 6.53125 20.835938 6.738281 Z M 20.835938 6.738281 "/>
<path style=" stroke:none;fill-rule:nonzero;fill:rgb(28.627451%,15.686275%,95.686275%);fill-opacity:1;" d="M 21 8 L 21 8.136719 L 20.308594 8.535156 L 19.871094 8.789062 L 19.386719 9.070312 L 18.414062 9.636719 L 17.464844 10.183594 L 16.496094 10.746094 L 16.109375 10.96875 C 16.109375 11.210938 16.050781 11.429688 15.941406 11.628906 C 15.785156 11.921875 15.523438 12.160156 15.195312 12.363281 C 14.859375 12.570312 14.449219 12.734375 13.988281 12.855469 C 13.988281 12.855469 13.988281 12.851562 13.984375 12.855469 C 12.203125 13.316406 9.773438 13.105469 8.59375 12.226562 C 8.265625 11.980469 8.035156 11.679688 7.933594 11.335938 C 7.90625 11.21875 7.890625 11.09375 7.890625 10.96875 L 7.890625 7.375 C 7.894531 7.300781 7.84375 7.226562 7.753906 7.148438 C 7.484375 6.933594 6.851562 6.730469 6.140625 6.523438 C 5.585938 6.371094 4.988281 6.214844 4.488281 6.066406 C 4.09375 5.945312 3.761719 5.824219 3.558594 5.710938 C 3.648438 5.535156 3.753906 5.359375 3.863281 5.195312 C 4.566406 4.171875 5.636719 3.414062 6.875 3.128906 C 7.234375 3.046875 7.613281 3 8 3 L 13.398438 3 C 16.085938 3.46875 18.558594 4.566406 20.636719 6.128906 C 20.714844 6.324219 20.785156 6.53125 20.835938 6.738281 C 20.925781 7.070312 20.980469 7.410156 20.996094 7.765625 C 21 7.839844 21 7.921875 21 8 Z M 21 8 "/>
<path style=" stroke:none;fill-rule:nonzero;fill:rgb(38.431373%,0%,91.764706%);fill-opacity:1;" d="M 21 8 L 21 10.203125 L 20.890625 10.546875 L 20.515625 11.710938 L 20.125 12.910156 L 19.921875 13.550781 L 19.730469 14.144531 L 19.546875 14.710938 L 19.363281 15.269531 L 19.269531 15.566406 L 19.144531 15.953125 C 19.144531 16.335938 19.136719 16.671875 19.109375 16.953125 C 19.105469 16.984375 19.101562 17.015625 19.101562 17.046875 C 19.070312 17.308594 19.03125 17.535156 18.964844 17.726562 C 18.960938 17.753906 18.949219 17.785156 18.941406 17.808594 C 18.808594 18.171875 18.613281 18.398438 18.324219 18.550781 C 18.253906 18.589844 18.175781 18.621094 18.089844 18.648438 C 17.824219 18.738281 17.488281 18.785156 17.078125 18.808594 C 16.78125 18.828125 16.433594 18.835938 16.046875 18.835938 L 15.699219 18.835938 L 15.105469 18.808594 L 15 18.804688 L 13.914062 18.761719 L 12.816406 18.714844 L 9.191406 18.566406 L 8.25 18.523438 L 8.121094 18.523438 C 7.730469 18.519531 7.394531 18.496094 7.105469 18.453125 C 6.683594 18.390625 6.359375 18.28125 6.113281 18.113281 C 5.765625 17.890625 5.558594 17.558594 5.441406 17.101562 C 5.410156 16.988281 5.386719 16.875 5.371094 16.75 C 5.320312 16.460938 5.296875 16.125 5.28125 15.75 C 5.28125 15.675781 5.28125 15.601562 5.273438 15.519531 C 5.269531 15.515625 5.273438 15.515625 5.273438 15.515625 L 5.273438 15.226562 C 5.269531 15.078125 5.269531 14.929688 5.269531 14.773438 L 5.296875 13.96875 L 5.308594 13.394531 L 5.328125 12.726562 L 5.328125 12.628906 L 5.363281 11.398438 L 5.398438 10.171875 L 5.433594 9.015625 L 5.464844 7.878906 L 5.476562 7.578125 C 5.476562 7.425781 4.949219 7.335938 4.363281 7.261719 C 3.898438 7.199219 3.390625 7.144531 3.085938 7.074219 C 3.109375 6.960938 3.136719 6.84375 3.164062 6.734375 C 3.253906 6.375 3.390625 6.035156 3.558594 5.710938 C 3.648438 5.535156 3.753906 5.359375 3.863281 5.195312 C 4.945312 4.71875 6.070312 4.351562 7.246094 4.109375 C 8.273438 3.894531 9.351562 3.78125 10.460938 3.78125 C 14.140625 3.78125 17.539062 5.023438 20.230469 7.125 C 20.488281 7.324219 20.746094 7.539062 20.996094 7.765625 C 21 7.839844 21 7.921875 21 8 Z M 21 8 "/>
<path style=" stroke:none;fill-rule:nonzero;fill:rgb(40.392157%,22.745098%,71.764706%);fill-opacity:1;" d="M 21 9.183594 L 21 11.453125 L 20.726562 11.984375 L 20.199219 13.011719 L 19.921875 13.550781 L 19.664062 14.046875 L 19.554688 14.261719 C 19.554688 14.414062 19.554688 14.566406 19.546875 14.710938 C 19.546875 14.925781 19.535156 15.128906 19.519531 15.320312 C 19.5 15.546875 19.46875 15.75 19.441406 15.941406 C 19.363281 16.335938 19.261719 16.675781 19.109375 16.953125 C 19.089844 16.988281 19.070312 17.023438 19.050781 17.054688 C 18.996094 17.144531 18.929688 17.230469 18.859375 17.308594 C 18.769531 17.421875 18.671875 17.515625 18.554688 17.59375 C 18.386719 17.726562 18.183594 17.828125 17.953125 17.910156 C 17.671875 18.015625 17.339844 18.085938 16.949219 18.125 C 16.695312 18.148438 16.414062 18.164062 16.109375 18.164062 L 15.898438 18.175781 L 14.859375 18.234375 L 14.855469 18.234375 L 13.75 18.300781 L 12.625 18.363281 L 11.074219 18.453125 L 9.191406 18.566406 L 8.914062 18.578125 C 8.660156 18.578125 8.421875 18.566406 8.191406 18.535156 C 8.164062 18.53125 8.144531 18.523438 8.121094 18.523438 C 7.78125 18.46875 7.46875 18.378906 7.191406 18.253906 C 6.851562 18.105469 6.554688 17.90625 6.304688 17.664062 C 6.085938 17.449219 5.894531 17.203125 5.738281 16.929688 C 5.703125 16.863281 5.671875 16.804688 5.640625 16.734375 C 5.488281 16.441406 5.371094 16.109375 5.28125 15.75 C 5.265625 15.691406 5.25 15.625 5.238281 15.558594 C 5.210938 15.445312 5.183594 15.324219 5.171875 15.199219 C 5.113281 14.878906 5.085938 14.539062 5.070312 14.183594 L 5.070312 14.179688 C 5.066406 14.035156 5.058594 13.894531 5.058594 13.746094 L 4.816406 13.160156 L 4.78125 13.070312 L 4.75 12.996094 L 4.375 12.101562 L 4.316406 11.953125 L 3.953125 11.089844 L 3.554688 10.125 C 3.554688 10.125 3.554688 10.125 3.550781 10.125 L 3.144531 9.148438 L 3 8.796875 L 3 8 C 3 7.683594 3.03125 7.375 3.085938 7.074219 C 3.109375 6.960938 3.136719 6.84375 3.164062 6.734375 C 3.589844 6.488281 4.035156 6.265625 4.488281 6.066406 C 5.53125 5.601562 6.644531 5.253906 7.800781 5.046875 C 8.660156 4.890625 9.554688 4.804688 10.460938 4.804688 C 14.113281 4.804688 17.429688 6.128906 20.019531 8.289062 C 20.121094 8.371094 20.214844 8.449219 20.308594 8.535156 C 20.546875 8.738281 20.773438 8.953125 21 9.183594 Z M 21 9.183594 "/>
<path style=" stroke:none;fill-rule:nonzero;fill:rgb(55.686275%,14.117647%,66.666667%);fill-opacity:1;" d="M 21 10.675781 L 21 13.246094 L 20.714844 13.839844 L 20.175781 14.964844 L 20.171875 14.980469 C 20.171875 15.195312 20.160156 15.390625 20.144531 15.566406 C 20.09375 16.140625 19.953125 16.503906 19.726562 16.730469 C 19.558594 16.898438 19.355469 16.996094 19.101562 17.046875 C 19.085938 17.050781 19.066406 17.050781 19.050781 17.054688 C 18.96875 17.070312 18.886719 17.078125 18.796875 17.078125 C 18.484375 17.109375 18.121094 17.089844 17.699219 17.058594 C 17.65625 17.058594 17.605469 17.054688 17.554688 17.050781 C 17.25 17.03125 16.925781 17.011719 16.566406 16.996094 C 16.371094 16.988281 16.164062 16.984375 15.953125 16.984375 L 15.945312 16.984375 L 15.441406 17.023438 L 15.433594 17.023438 L 14.300781 17.105469 L 13.003906 17.203125 L 12.816406 17.21875 L 11.300781 17.328125 L 10.515625 17.390625 L 9.738281 17.445312 C 9.605469 17.445312 9.476562 17.445312 9.34375 17.441406 C 9.34375 17.441406 9.339844 17.433594 9.339844 17.441406 C 8.773438 17.429688 8.269531 17.394531 7.820312 17.308594 C 7.40625 17.238281 7.039062 17.128906 6.730469 16.964844 C 6.410156 16.808594 6.144531 16.589844 5.929688 16.308594 C 5.726562 16.035156 5.574219 15.691406 5.480469 15.273438 C 5.480469 15.269531 5.480469 15.269531 5.480469 15.269531 C 5.410156 14.933594 5.371094 14.546875 5.371094 14.105469 L 5.296875 13.96875 L 4.851562 13.175781 L 4.785156 13.066406 L 4.75 12.996094 L 4.285156 12.171875 L 4.054688 11.753906 L 3.765625 11.238281 L 3.265625 10.34375 L 3 9.875 L 3 8.035156 C 3.441406 7.746094 3.894531 7.488281 4.363281 7.261719 C 4.933594 6.96875 5.523438 6.726562 6.140625 6.523438 C 6.808594 6.304688 7.511719 6.128906 8.226562 6.015625 C 8.949219 5.894531 9.695312 5.835938 10.460938 5.835938 C 13.859375 5.835938 16.980469 7.050781 19.386719 9.070312 C 19.496094 9.15625 19.601562 9.25 19.703125 9.339844 C 20.125 9.714844 20.523438 10.121094 20.890625 10.546875 C 20.929688 10.589844 20.96875 10.628906 21 10.675781 Z M 21 10.675781 "/>
<path style=" stroke:none;fill-rule:nonzero;fill:rgb(76.078431%,9.411765%,35.686275%);fill-opacity:1;" d="M 21 12.355469 L 21 15.96875 C 20.878906 15.898438 20.714844 15.816406 20.511719 15.726562 C 20.398438 15.671875 20.273438 15.613281 20.144531 15.566406 C 19.953125 15.480469 19.75 15.398438 19.519531 15.320312 C 19.46875 15.300781 19.421875 15.285156 19.363281 15.269531 C 19.273438 15.234375 19.179688 15.203125 19.085938 15.175781 C 18.789062 15.085938 18.464844 15 18.125 14.925781 C 17.996094 14.898438 17.859375 14.875 17.726562 14.855469 C 17.289062 14.78125 16.824219 14.734375 16.339844 14.730469 C 16.300781 14.726562 16.253906 14.726562 16.214844 14.726562 L 14.929688 14.734375 L 13.179688 14.746094 L 13.175781 14.746094 L 9.429688 14.773438 C 8.238281 14.773438 7.511719 15.058594 7.070312 15.175781 C 7.070312 15.175781 7.066406 15.175781 7.066406 15.179688 C 6.601562 15.300781 6.453125 15.226562 6.414062 14.410156 C 6.40625 14.183594 6.398438 13.894531 6.398438 13.539062 L 6.121094 13.324219 L 5.628906 12.953125 L 5.328125 12.726562 L 5.269531 12.679688 L 4.441406 12.050781 L 4.316406 11.953125 L 4.054688 11.753906 L 3.574219 11.394531 L 3 10.953125 L 3 9.253906 C 3.050781 9.214844 3.09375 9.179688 3.144531 9.148438 C 3.871094 8.648438 4.644531 8.226562 5.464844 7.878906 C 6.195312 7.570312 6.964844 7.324219 7.753906 7.148438 C 7.96875 7.105469 8.191406 7.058594 8.414062 7.03125 C 9.078125 6.914062 9.765625 6.859375 10.460938 6.859375 C 13.464844 6.859375 16.226562 7.90625 18.414062 9.636719 C 18.746094 9.894531 19.066406 10.171875 19.363281 10.464844 C 19.773438 10.855469 20.160156 11.269531 20.515625 11.710938 C 20.585938 11.800781 20.65625 11.890625 20.726562 11.984375 C 20.820312 12.105469 20.910156 12.230469 21 12.355469 Z M 21 12.355469 "/>
<path style=" stroke:none;fill-rule:nonzero;fill:rgb(84.705882%,10.588235%,37.647059%);fill-opacity:1;" d="M 21 14.359375 L 21 16 C 21 16.324219 20.96875 16.644531 20.910156 16.953125 C 20.820312 17.414062 20.664062 17.855469 20.453125 18.265625 C 20.34375 18.289062 20.21875 18.289062 20.078125 18.269531 C 19.765625 18.214844 19.394531 18.050781 18.996094 17.835938 C 18.976562 17.828125 18.953125 17.820312 18.941406 17.808594 C 18.816406 17.746094 18.683594 17.675781 18.554688 17.59375 C 18.289062 17.449219 18.011719 17.289062 17.730469 17.140625 C 17.671875 17.109375 17.609375 17.078125 17.554688 17.050781 C 17.234375 16.886719 16.90625 16.734375 16.574219 16.621094 C 16.574219 16.621094 16.574219 16.621094 16.570312 16.621094 C 16.5 16.59375 16.425781 16.570312 16.351562 16.550781 C 16.066406 16.46875 15.773438 16.421875 15.496094 16.421875 L 14.945312 16.261719 L 12.511719 15.554688 C 12.511719 15.554688 12.511719 15.554688 12.503906 15.554688 L 11.011719 15.121094 L 11.003906 15.121094 L 10.355469 14.929688 C 8.476562 14.929688 7.320312 15.730469 6.761719 15.425781 C 6.539062 15.308594 6.410156 15.019531 6.363281 14.449219 C 6.351562 14.289062 6.34375 14.109375 6.34375 13.898438 L 5.761719 13.613281 L 5.734375 13.605469 L 5.730469 13.605469 L 5.308594 13.394531 L 4.851562 13.175781 L 4.816406 13.160156 L 4.730469 13.113281 L 3.75 12.640625 L 3 12.273438 L 3 10.558594 C 3.085938 10.484375 3.175781 10.414062 3.265625 10.34375 C 3.359375 10.269531 3.453125 10.199219 3.550781 10.125 C 3.554688 10.125 3.554688 10.125 3.554688 10.125 C 4.144531 9.699219 4.769531 9.324219 5.433594 9.015625 C 6.210938 8.644531 7.035156 8.359375 7.890625 8.175781 C 8.015625 8.144531 8.144531 8.113281 8.273438 8.09375 C 8.984375 7.960938 9.714844 7.890625 10.460938 7.890625 C 13.09375 7.890625 15.515625 8.746094 17.464844 10.183594 C 18.03125 10.605469 18.554688 11.070312 19.035156 11.574219 C 19.429688 11.988281 19.796875 12.441406 20.125 12.910156 C 20.148438 12.945312 20.175781 12.980469 20.199219 13.011719 C 20.386719 13.28125 20.554688 13.554688 20.714844 13.839844 C 20.820312 14.011719 20.910156 14.183594 21 14.359375 Z M 21 14.359375 "/>
<path style=" stroke:none;fill-rule:nonzero;fill:rgb(96.078431%,0%,34.117647%);fill-opacity:1;" d="M 20.910156 16.953125 C 20.820312 17.414062 20.664062 17.855469 20.453125 18.265625 C 20.359375 18.449219 20.253906 18.625 20.140625 18.796875 C 20.070312 18.898438 19.996094 19 19.921875 19.09375 C 19.738281 19.023438 19.476562 18.925781 19.148438 18.816406 C 19.148438 18.816406 19.148438 18.816406 19.148438 18.808594 C 18.90625 18.726562 18.625 18.636719 18.324219 18.550781 C 18.238281 18.523438 18.15625 18.5 18.066406 18.476562 C 17.710938 18.378906 17.339844 18.296875 16.980469 18.246094 C 16.679688 18.195312 16.386719 18.164062 16.109375 18.164062 L 15.878906 18.101562 L 15.875 18.101562 L 14.664062 17.75 L 13.921875 17.535156 L 13.089844 17.296875 L 13.085938 17.296875 L 12.816406 17.21875 L 9.550781 16.28125 L 8.609375 16.011719 L 7.910156 15.84375 L 6.769531 15.574219 L 6.628906 15.539062 C 6.628906 15.539062 6.628906 15.539062 6.625 15.539062 L 5.480469 15.273438 C 5.480469 15.269531 5.480469 15.269531 5.480469 15.269531 L 5.273438 15.226562 L 5.171875 15.199219 L 4.335938 15.003906 L 4.238281 14.980469 L 3.53125 14.394531 L 3 13.949219 L 3 11.910156 C 3.183594 11.730469 3.375 11.558594 3.574219 11.394531 C 3.636719 11.339844 3.699219 11.289062 3.765625 11.238281 C 3.824219 11.191406 3.890625 11.140625 3.953125 11.089844 C 4.410156 10.746094 4.890625 10.433594 5.398438 10.171875 C 6.050781 9.820312 6.738281 9.539062 7.464844 9.339844 C 7.605469 9.296875 7.746094 9.253906 7.890625 9.226562 C 8.710938 9.019531 9.570312 8.914062 10.460938 8.914062 C 12.695312 8.914062 14.773438 9.589844 16.496094 10.746094 C 17.351562 11.320312 18.121094 12.011719 18.769531 12.796875 C 19.101562 13.191406 19.398438 13.605469 19.664062 14.046875 C 19.691406 14.078125 19.710938 14.109375 19.730469 14.144531 C 19.890625 14.410156 20.039062 14.683594 20.175781 14.964844 C 20.300781 15.214844 20.410156 15.464844 20.511719 15.726562 C 20.671875 16.125 20.800781 16.535156 20.910156 16.953125 Z M 20.910156 16.953125 "/>
<path style=" stroke:none;fill-rule:nonzero;fill:rgb(100%,9.019608%,26.666667%);fill-opacity:1;" d="M 20.140625 18.796875 C 20.070312 18.898438 19.996094 19 19.921875 19.09375 C 19.699219 19.371094 19.460938 19.621094 19.191406 19.839844 C 18.953125 20.035156 18.703125 20.210938 18.441406 20.359375 C 18.339844 20.335938 18.238281 20.304688 18.136719 20.265625 C 17.804688 20.148438 17.460938 19.960938 17.140625 19.761719 C 16.660156 19.453125 16.246094 19.125 16.058594 18.976562 C 15.988281 18.914062 15.953125 18.886719 15.953125 18.886719 L 15.105469 18.808594 L 15 18.800781 L 13.898438 18.703125 L 12.761719 18.605469 L 11.074219 18.453125 L 8.40625 18.21875 L 8.394531 18.214844 L 7.453125 17.761719 L 6.503906 17.300781 L 5.738281 16.929688 L 5.574219 16.851562 L 5.371094 16.75 L 4.660156 16.40625 L 3.714844 15.949219 L 3.421875 15.804688 L 3 15.675781 L 3 13.441406 C 3.234375 13.160156 3.484375 12.894531 3.75 12.640625 C 3.921875 12.480469 4.101562 12.320312 4.285156 12.171875 C 4.316406 12.144531 4.34375 12.121094 4.375 12.101562 C 4.394531 12.074219 4.421875 12.058594 4.441406 12.050781 C 4.734375 11.808594 5.046875 11.59375 5.363281 11.398438 C 5.734375 11.164062 6.125 10.953125 6.53125 10.78125 C 6.964844 10.585938 7.421875 10.421875 7.890625 10.296875 C 8.703125 10.066406 9.570312 9.945312 10.460938 9.945312 C 12.5 9.945312 14.386719 10.566406 15.941406 11.628906 C 16.933594 12.308594 17.796875 13.171875 18.476562 14.164062 C 18.699219 14.484375 18.898438 14.824219 19.085938 15.175781 C 19.148438 15.304688 19.214844 15.433594 19.269531 15.566406 C 19.328125 15.691406 19.386719 15.816406 19.441406 15.941406 C 19.546875 16.199219 19.640625 16.460938 19.726562 16.730469 C 19.886719 17.230469 20.003906 17.738281 20.078125 18.269531 C 20.105469 18.445312 20.125 18.621094 20.140625 18.796875 Z M 20.140625 18.796875 "/>
<path style=" stroke:none;fill-rule:nonzero;fill:rgb(100%,34.117647%,13.333333%);fill-opacity:1;" d="M 19.195312 19.710938 C 19.195312 19.75 19.195312 19.796875 19.191406 19.839844 C 18.953125 20.035156 18.703125 20.210938 18.441406 20.359375 C 18.328125 20.421875 18.21875 20.480469 18.105469 20.53125 C 17.988281 20.585938 17.875 20.636719 17.753906 20.679688 C 17.585938 20.589844 17.355469 20.480469 17.109375 20.375 C 16.765625 20.21875 16.390625 20.078125 16.101562 20.035156 C 16.03125 20.019531 15.964844 20.015625 15.90625 20.015625 L 15.085938 19.910156 L 15.074219 19.910156 L 14.054688 19.773438 L 13.023438 19.640625 L 12.546875 19.578125 L 8.765625 19.089844 C 8.519531 19.089844 8.261719 19.074219 7.988281 19.039062 C 7.660156 19.011719 7.316406 18.960938 6.96875 18.890625 C 6.628906 18.828125 6.285156 18.75 5.953125 18.664062 C 5.609375 18.585938 5.269531 18.488281 4.953125 18.398438 C 4.589844 18.289062 4.25 18.183594 3.964844 18.089844 C 3.730469 18.015625 3.53125 17.945312 3.375 17.890625 C 3.285156 17.675781 3.210938 17.449219 3.15625 17.21875 C 3.050781 16.828125 3 16.421875 3 16 L 3 15.164062 C 3.160156 14.898438 3.335938 14.640625 3.53125 14.394531 C 3.886719 13.925781 4.289062 13.496094 4.730469 13.113281 C 4.746094 13.09375 4.765625 13.078125 4.78125 13.070312 L 4.785156 13.066406 C 4.941406 12.925781 5.101562 12.800781 5.269531 12.679688 C 5.289062 12.660156 5.308594 12.644531 5.328125 12.628906 C 5.410156 12.570312 5.496094 12.511719 5.585938 12.453125 C 6.300781 11.96875 7.089844 11.589844 7.933594 11.335938 C 8.734375 11.09375 9.578125 10.96875 10.460938 10.96875 C 12.203125 10.96875 13.835938 11.484375 15.195312 12.363281 C 16.199219 13.011719 17.066406 13.859375 17.726562 14.855469 C 17.804688 14.96875 17.878906 15.085938 17.953125 15.203125 C 18.300781 15.789062 18.585938 16.421875 18.796875 17.078125 C 18.820312 17.15625 18.839844 17.230469 18.859375 17.308594 C 18.898438 17.445312 18.933594 17.585938 18.964844 17.726562 C 18.976562 17.761719 18.984375 17.796875 18.996094 17.835938 C 19.066406 18.148438 19.113281 18.480469 19.148438 18.808594 C 19.148438 18.816406 19.148438 18.816406 19.148438 18.816406 C 19.179688 19.109375 19.195312 19.410156 19.195312 19.710938 Z M 19.195312 19.710938 "/>
<path style=" stroke:none;fill-rule:nonzero;fill:rgb(100%,43.529412%,0%);fill-opacity:1;" d="M 18.164062 19.710938 C 18.164062 19.886719 18.15625 20.074219 18.136719 20.265625 C 18.125 20.355469 18.113281 20.445312 18.105469 20.53125 C 17.988281 20.585938 17.875 20.636719 17.753906 20.679688 C 17.53125 20.765625 17.300781 20.835938 17.066406 20.886719 C 16.90625 20.921875 16.738281 20.949219 16.574219 20.964844 L 16.570312 20.964844 C 16.414062 20.871094 16.234375 20.753906 16.050781 20.625 C 15.714844 20.390625 15.363281 20.125 15.085938 19.910156 C 15.078125 19.90625 15.078125 19.90625 15.074219 19.898438 C 14.78125 19.675781 14.570312 19.503906 14.570312 19.503906 L 14.039062 19.523438 L 13.019531 19.558594 L 12.546875 19.578125 L 10.636719 19.648438 L 9.019531 19.710938 C 8.914062 19.714844 8.789062 19.714844 8.636719 19.710938 L 8.628906 19.710938 C 8.421875 19.703125 8.171875 19.691406 7.894531 19.664062 C 7.574219 19.640625 7.226562 19.609375 6.871094 19.574219 C 6.523438 19.535156 6.175781 19.496094 5.839844 19.453125 C 5.46875 19.414062 5.121094 19.371094 4.820312 19.328125 C 4.585938 19.300781 4.378906 19.273438 4.214844 19.253906 C 4.074219 19.09375 3.949219 18.929688 3.828125 18.75 C 3.648438 18.480469 3.496094 18.195312 3.375 17.890625 C 3.285156 17.675781 3.210938 17.449219 3.15625 17.21875 C 3.300781 16.773438 3.488281 16.355469 3.714844 15.949219 C 3.894531 15.621094 4.105469 15.304688 4.335938 15.003906 C 4.558594 14.710938 4.804688 14.433594 5.070312 14.183594 L 5.070312 14.179688 C 5.144531 14.105469 5.21875 14.035156 5.296875 13.96875 C 5.433594 13.839844 5.578125 13.71875 5.730469 13.605469 L 5.734375 13.605469 C 5.738281 13.59375 5.746094 13.59375 5.75 13.589844 C 5.871094 13.496094 5.996094 13.410156 6.121094 13.324219 C 6.859375 12.820312 7.695312 12.445312 8.59375 12.226562 C 9.191406 12.078125 9.816406 12 10.460938 12 C 11.730469 12 12.929688 12.304688 13.984375 12.855469 L 13.988281 12.855469 C 14.894531 13.320312 15.695312 13.960938 16.339844 14.730469 C 16.695312 15.140625 17 15.589844 17.25 16.066406 C 17.425781 16.386719 17.574219 16.71875 17.699219 17.058594 C 17.710938 17.089844 17.71875 17.113281 17.730469 17.140625 C 17.816406 17.390625 17.890625 17.648438 17.953125 17.910156 C 18 18.09375 18.035156 18.285156 18.066406 18.476562 C 18.074219 18.535156 18.085938 18.589844 18.089844 18.648438 C 18.140625 18.996094 18.164062 19.351562 18.164062 19.710938 Z M 18.164062 19.710938 "/>
<path style=" stroke:none;fill-rule:nonzero;fill:rgb(100%,59.607843%,0%);fill-opacity:1;" d="M 17.140625 19.710938 L 17.140625 19.761719 C 17.140625 19.929688 17.125 20.144531 17.109375 20.375 C 17.09375 20.546875 17.078125 20.71875 17.066406 20.886719 C 16.90625 20.921875 16.738281 20.949219 16.574219 20.964844 L 16.570312 20.964844 C 16.378906 20.988281 16.195312 21 16 21 L 15.125 21 L 14.933594 20.945312 L 13.949219 20.644531 L 12.949219 20.34375 L 10.636719 19.648438 L 9.636719 19.351562 C 9.636719 19.351562 9.21875 19.515625 8.636719 19.710938 L 8.628906 19.710938 C 8.40625 19.785156 8.160156 19.863281 7.898438 19.945312 C 7.574219 20.039062 7.230469 20.136719 6.890625 20.210938 C 6.539062 20.289062 6.195312 20.351562 5.886719 20.375 C 5.789062 20.386719 5.695312 20.390625 5.609375 20.390625 C 5.328125 20.234375 5.058594 20.050781 4.816406 19.84375 C 4.601562 19.664062 4.398438 19.46875 4.214844 19.253906 C 4.074219 19.09375 3.949219 18.929688 3.828125 18.75 C 3.863281 18.523438 3.90625 18.304688 3.964844 18.089844 C 4.113281 17.496094 4.351562 16.925781 4.660156 16.40625 C 4.828125 16.109375 5.019531 15.824219 5.238281 15.558594 C 5.246094 15.546875 5.261719 15.53125 5.273438 15.519531 C 5.269531 15.515625 5.273438 15.515625 5.273438 15.515625 C 5.339844 15.429688 5.410156 15.351562 5.480469 15.273438 C 5.480469 15.269531 5.480469 15.269531 5.480469 15.269531 C 5.683594 15.050781 5.894531 14.839844 6.125 14.644531 C 6.203125 14.578125 6.28125 14.515625 6.363281 14.449219 C 6.378906 14.433594 6.394531 14.425781 6.414062 14.410156 C 7.539062 13.550781 8.945312 13.03125 10.460938 13.03125 C 12.179688 13.03125 13.746094 13.675781 14.929688 14.734375 C 15.5 15.25 15.984375 15.863281 16.351562 16.550781 C 16.378906 16.601562 16.410156 16.65625 16.433594 16.710938 C 16.480469 16.800781 16.523438 16.894531 16.566406 16.996094 C 16.730469 17.355469 16.859375 17.734375 16.949219 18.125 C 16.960938 18.164062 16.96875 18.203125 16.980469 18.246094 C 17.019531 18.429688 17.054688 18.621094 17.078125 18.808594 C 17.121094 19.105469 17.140625 19.40625 17.140625 19.710938 Z M 17.140625 19.710938 "/>
<path style=" stroke:none;fill-rule:nonzero;fill:rgb(100%,75.686275%,2.745098%);fill-opacity:1;" d="M 16.109375 19.710938 C 16.109375 19.808594 16.105469 19.921875 16.101562 20.035156 C 16.089844 20.21875 16.074219 20.421875 16.050781 20.625 C 16.039062 20.75 16.019531 20.875 16 21 L 13.261719 21 L 12.730469 20.914062 L 10.660156 20.585938 L 10.363281 20.539062 L 9.691406 20.429688 C 9.394531 20.429688 8.753906 20.558594 8.078125 20.683594 C 7.726562 20.75 7.363281 20.820312 7.039062 20.863281 C 7 20.871094 6.960938 20.875 6.925781 20.878906 L 6.921875 20.878906 C 6.570312 20.804688 6.230469 20.691406 5.910156 20.539062 C 5.808594 20.496094 5.710938 20.445312 5.609375 20.390625 C 5.328125 20.234375 5.058594 20.050781 4.816406 19.84375 C 4.808594 19.785156 4.804688 19.734375 4.804688 19.710938 C 4.804688 19.578125 4.808594 19.453125 4.820312 19.328125 C 4.839844 19.011719 4.886719 18.699219 4.953125 18.398438 C 5.066406 17.945312 5.226562 17.503906 5.441406 17.101562 C 5.480469 17.015625 5.523438 16.929688 5.574219 16.851562 C 5.59375 16.808594 5.621094 16.773438 5.640625 16.734375 C 5.730469 16.589844 5.828125 16.449219 5.929688 16.308594 C 6.140625 16.035156 6.375 15.773438 6.625 15.539062 C 6.628906 15.539062 6.628906 15.539062 6.628906 15.539062 C 6.648438 15.519531 6.671875 15.5 6.691406 15.484375 C 6.714844 15.464844 6.734375 15.441406 6.761719 15.425781 C 6.859375 15.335938 6.960938 15.253906 7.066406 15.179688 C 7.066406 15.175781 7.070312 15.175781 7.070312 15.175781 C 8.015625 14.46875 9.183594 14.054688 10.460938 14.054688 C 11.449219 14.054688 12.371094 14.304688 13.175781 14.746094 L 13.179688 14.746094 C 13.871094 15.125 14.46875 15.640625 14.945312 16.261719 C 15.128906 16.5 15.296875 16.753906 15.433594 17.023438 L 15.441406 17.023438 C 15.464844 17.074219 15.488281 17.125 15.515625 17.175781 C 15.664062 17.46875 15.785156 17.78125 15.875 18.101562 L 15.878906 18.101562 C 15.886719 18.125 15.894531 18.148438 15.898438 18.175781 C 15.960938 18.390625 16.011719 18.609375 16.046875 18.835938 C 16.050781 18.878906 16.054688 18.929688 16.058594 18.976562 C 16.09375 19.214844 16.109375 19.460938 16.109375 19.710938 Z M 16.109375 19.710938 "/>
<path style=" stroke:none;fill-rule:nonzero;fill:rgb(100%,83.529412%,30.980392%);fill-opacity:1;" d="M 15.085938 19.65625 C 15.085938 19.734375 15.085938 19.820312 15.074219 19.898438 L 15.074219 19.90625 C 15.074219 19.910156 15.074219 19.910156 15.074219 19.910156 C 15.066406 20.269531 15.015625 20.625 14.933594 20.945312 C 14.933594 20.964844 14.929688 20.980469 14.921875 21 L 12.585938 21 L 10.660156 20.585938 L 10.40625 20.53125 L 10.363281 20.539062 L 8.230469 20.980469 L 8.136719 21 L 8 21 C 7.679688 21 7.363281 20.96875 7.058594 20.910156 C 7.015625 20.898438 6.96875 20.890625 6.925781 20.878906 L 6.921875 20.878906 C 6.570312 20.804688 6.230469 20.691406 5.910156 20.539062 C 5.898438 20.484375 5.890625 20.429688 5.886719 20.375 C 5.851562 20.160156 5.835938 19.933594 5.835938 19.710938 C 5.835938 19.625 5.835938 19.539062 5.839844 19.453125 C 5.855469 19.183594 5.894531 18.921875 5.953125 18.664062 C 5.996094 18.476562 6.050781 18.289062 6.113281 18.113281 C 6.171875 17.960938 6.234375 17.808594 6.304688 17.664062 C 6.363281 17.539062 6.433594 17.421875 6.503906 17.300781 C 6.574219 17.183594 6.648438 17.074219 6.730469 16.964844 C 6.929688 16.691406 7.164062 16.433594 7.425781 16.210938 C 7.574219 16.078125 7.738281 15.953125 7.910156 15.84375 C 8.640625 15.363281 9.515625 15.085938 10.460938 15.085938 C 10.644531 15.085938 10.824219 15.09375 11 15.121094 L 11.011719 15.121094 C 11.546875 15.179688 12.046875 15.328125 12.503906 15.554688 C 12.511719 15.554688 12.511719 15.554688 12.511719 15.554688 C 13.234375 15.910156 13.851562 16.445312 14.300781 17.105469 C 14.375 17.214844 14.449219 17.335938 14.515625 17.453125 C 14.570312 17.550781 14.621094 17.648438 14.664062 17.75 C 14.734375 17.90625 14.800781 18.070312 14.855469 18.234375 L 14.859375 18.234375 C 14.914062 18.421875 14.964844 18.605469 15 18.800781 L 15 18.804688 C 15.054688 19.078125 15.085938 19.363281 15.085938 19.65625 Z M 15.085938 19.65625 "/>
<path style=" stroke:none;fill-rule:nonzero;fill:rgb(100%,87.843137%,50.980392%);fill-opacity:1;" d="M 14.054688 19.761719 L 14.054688 19.773438 C 14.054688 20.070312 14.019531 20.359375 13.949219 20.644531 C 13.925781 20.765625 13.890625 20.886719 13.84375 21 L 11.605469 21 L 10.460938 20.683594 L 9.316406 21 L 8 21 C 7.679688 21 7.363281 20.96875 7.058594 20.910156 C 7.050781 20.894531 7.046875 20.878906 7.039062 20.863281 C 6.96875 20.648438 6.914062 20.433594 6.890625 20.210938 C 6.871094 20.066406 6.859375 19.914062 6.859375 19.761719 C 6.859375 19.699219 6.859375 19.636719 6.871094 19.574219 C 6.875 19.339844 6.910156 19.109375 6.96875 18.890625 C 7 18.738281 7.046875 18.59375 7.105469 18.453125 C 7.125 18.386719 7.15625 18.320312 7.191406 18.253906 C 7.265625 18.085938 7.355469 17.921875 7.453125 17.761719 C 7.566406 17.601562 7.683594 17.449219 7.820312 17.308594 C 7.980469 17.128906 8.160156 16.964844 8.363281 16.828125 C 8.714844 16.574219 9.113281 16.386719 9.550781 16.28125 C 9.839844 16.199219 10.144531 16.160156 10.460938 16.160156 C 11.460938 16.160156 12.355469 16.558594 13.003906 17.203125 C 13.03125 17.230469 13.058594 17.261719 13.085938 17.296875 L 13.089844 17.296875 C 13.160156 17.371094 13.226562 17.445312 13.289062 17.53125 C 13.476562 17.765625 13.628906 18.019531 13.75 18.300781 C 13.808594 18.429688 13.859375 18.566406 13.898438 18.703125 C 13.90625 18.726562 13.910156 18.738281 13.914062 18.761719 C 13.984375 19.003906 14.03125 19.261719 14.039062 19.523438 C 14.050781 19.601562 14.054688 19.679688 14.054688 19.761719 Z M 14.054688 19.761719 "/>
<path style=" stroke:none;fill-rule:nonzero;fill:rgb(100%,92.54902%,70.196078%);fill-opacity:1;" d="M 13.03125 19.761719 C 13.03125 19.964844 13.003906 20.160156 12.949219 20.34375 C 12.898438 20.546875 12.824219 20.734375 12.730469 20.914062 C 12.714844 20.945312 12.679688 21 12.679688 21 L 8.238281 21 C 8.234375 20.996094 8.230469 20.984375 8.230469 20.980469 C 8.171875 20.886719 8.121094 20.789062 8.078125 20.683594 C 7.980469 20.453125 7.921875 20.203125 7.898438 19.945312 C 7.890625 19.886719 7.890625 19.820312 7.890625 19.761719 C 7.890625 19.730469 7.890625 19.695312 7.894531 19.664062 C 7.898438 19.445312 7.929688 19.234375 7.988281 19.039062 C 8.039062 18.859375 8.105469 18.695312 8.191406 18.535156 C 8.191406 18.535156 8.195312 18.53125 8.195312 18.523438 C 8.253906 18.421875 8.320312 18.316406 8.394531 18.214844 C 8.640625 17.886719 8.964844 17.613281 9.339844 17.441406 C 9.34375 17.441406 9.34375 17.441406 9.34375 17.441406 C 9.464844 17.378906 9.589844 17.328125 9.71875 17.296875 C 9.71875 17.296875 9.71875 17.296875 9.726562 17.296875 C 9.953125 17.226562 10.203125 17.191406 10.460938 17.191406 C 10.753906 17.191406 11.039062 17.234375 11.300781 17.328125 C 11.394531 17.355469 11.484375 17.394531 11.574219 17.441406 C 11.574219 17.441406 11.574219 17.441406 11.578125 17.441406 C 12.011719 17.644531 12.375 17.964844 12.625 18.363281 C 12.675781 18.441406 12.71875 18.519531 12.761719 18.605469 C 12.78125 18.640625 12.800781 18.679688 12.816406 18.714844 C 12.929688 18.976562 13 19.261719 13.019531 19.558594 C 13.023438 19.585938 13.023438 19.609375 13.023438 19.640625 C 13.03125 19.679688 13.03125 19.71875 13.03125 19.761719 Z M 13.03125 19.761719 "/>
<path style="fill:none;stroke-width:2;stroke-linecap:round;stroke-linejoin:round;stroke:rgb(100%,100%,100%);stroke-opacity:1;stroke-miterlimit:10;" d="M 30 11 L 18 11 C 14.101562 11 11 14.101562 11 18 L 11 30 C 11 33.898438 14.101562 37 18 37 L 30 37 C 33.898438 37 37 33.898438 37 30 L 37 18 C 37 14.101562 33.898438 11 30 11 Z M 30 11 " transform="matrix(0.5,0,0,0.5,0,0)"/>
<path style=" stroke:none;fill-rule:nonzero;fill:rgb(100%,100%,100%);fill-opacity:1;" d="M 16 8 C 16 8.277344 15.777344 8.5 15.5 8.5 C 15.222656 8.5 15 8.277344 15 8 C 15 7.722656 15.222656 7.5 15.5 7.5 C 15.777344 7.5 16 7.722656 16 8 Z M 16 8 "/>
<path style="fill:none;stroke-width:2;stroke-linecap:round;stroke-linejoin:round;stroke:rgb(100%,100%,100%);stroke-opacity:1;stroke-miterlimit:10;" d="M 30 24 C 30 27.3125 27.3125 30 24 30 C 20.6875 30 18 27.3125 18 24 C 18 20.6875 20.6875 18 24 18 C 27.3125 18 30 20.6875 30 24 Z M 30 24 " transform="matrix(0.5,0,0,0.5,0,0)"/>
</g>
</svg>
